<?xml version="1.0" encoding="UTF-8" standalone="no"?>
<svg
   viewBox="0 0 523.9879 571.66873"
   version="1.1"
   id="svg465"
   sodipodi:docname="luharud-colores.svg"
   width="523.98792"
   height="571.66876"
   inkscape:version="1.3 (0e150ed6c4, 2023-07-21)"
   inkscape:export-filename="luharud-editado.svg"
   inkscape:export-xdpi="96"
   inkscape:export-ydpi="96"
   xmlns:inkscape="http://www.inkscape.org/namespaces/inkscape"
   xmlns:sodipodi="http://sodipodi.sourceforge.net/DTD/sodipodi-0.dtd"
   xmlns="http://www.w3.org/2000/svg"
   xmlns:svg="http://www.w3.org/2000/svg">
  <sodipodi:namedview
     id="namedview467"
     pagecolor="#ffffff"
     bordercolor="#000000"
     borderopacity="0.25"
     inkscape:showpageshadow="2"
     inkscape:pageopacity="0.0"
     inkscape:pagecheckerboard="0"
     inkscape:deskcolor="#d1d1d1"
     showgrid="false"
     inkscape:zoom="0.5"
     inkscape:cx="186"
     inkscape:cy="575"
     inkscape:window-width="1920"
     inkscape:window-height="1017"
     inkscape:window-x="-8"
     inkscape:window-y="-8"
     inkscape:window-maximized="1"
     inkscape:current-layer="svg465"
     showguides="true" />
  <defs
     id="defs4">
    <style
       id="style2">.cls-1{fill:#f3743d;}.cls-2,.cls-6{fill:none;stroke:#573824;stroke-linecap:round;stroke-miterlimit:10;}.cls-2{stroke-width:18px;}.cls-3{fill:#ecceb3;}.cls-12,.cls-4{fill:#573824;}.cls-5{fill:#d19d77;}.cls-6{stroke-width:7px;}.cls-7{fill:#c3aed4;}.cls-13,.cls-8{fill:#f6ede3;}.cls-9{fill:#c6bbb0;}.cls-10{fill:#f3c2c0;}.cls-11{fill:#eabc24;}.cls-12,.cls-13{fill-rule:evenodd;}.cls-14{fill:#8a5537;}</style>
  </defs>
  <circle
     style="display:inline;fill:#c3aed4;fill-opacity:1;stroke:none;stroke-width:1.01211;stroke-linecap:round;stroke-linejoin:round;stroke-dasharray:none;stroke-opacity:1"
     id="circle3871"
     cx="261.99396"
     cy="309.67487"
     r="261.99396"
     inkscape:label="fondo" />
  <path
     id="circle2881"
     style="display:inline;fill:#ecceb3;fill-opacity:1;stroke:none;stroke-width:0.943644;stroke-linecap:round;stroke-linejoin:round;stroke-dasharray:none;stroke-opacity:1"
     inkscape:label="cara"
     d="m 311.48394,105.64645 c -8.46314,31.00911 -99.77066,137.81241 -189.79492,147.04297 l -2.33789,-5.05078 A 157.02818,159.52818 0 0 0 118.56011,260.9238 157.02818,159.52818 0 0 0 275.58746,420.45309 157.02818,159.52818 0 0 0 432.61675,260.9238 157.02818,159.52818 0 0 0 311.48394,105.64645 Z" />
  <path
     class="cls-5"
     d="m 303.73471,91.739965 c 0,0 -161.43,91.420005 -192.61,133.540005 8.6,5.66 17.49,11.37 22.17,20.55 3.14,-0.21 6.56,-0.53 10.31,-1 141.19,-17.52 184,-142.63 184,-142.63 z"
     id="path23"
     style="display:inline"
     inkscape:label="sombra copete" />
  <path
     id="path2947"
     style="display:inline"
     class="cls-4"
     inkscape:label="pelo"
     d="m 56.321447,471.96984 c 2.32163,3.25427 5.20321,6.13104 7.67132,9.27567 8.16998,9.42863 17.00301,18.26166 26.43164,26.43164 9.42912,8.17048 19.429833,15.65698 29.925783,22.40234 9.06983,5.70018 18.48073,10.83874 28.17969,15.38672 0.40305,-1.0523 0.76494,-2.03592 1.21875,-3.17187 1.06756,-2.67228 2.24833,-5.51729 3.54101,-8.49805 1.29268,-2.98075 2.69903,-6.09665 4.2207,-9.31055 1.52169,-3.21391 3.15757,-6.52672 4.91211,-9.89844 1.75456,-3.37171 3.62786,-6.80359 5.61915,-10.25781 1.99129,-3.45422 4.10012,-6.92924 6.33203,-10.39062 2.23191,-3.46138 4.5861,-6.90757 7.0625,-10.30079 1.2382,-1.6966 2.5066,-3.38143 3.80664,-5.04687 1.30005,-1.66545 2.63176,-3.31264 3.99414,-4.9375 1.36238,-1.62487 2.75644,-3.2259 4.18164,-4.80078 1.42519,-1.57487 2.88064,-3.12321 4.36914,-4.63867 1.48849,-1.51546 3.01022,-2.99869 4.5625,-4.44532 1.55228,-1.44662 3.1354,-2.85622 4.75195,-4.2246 1.61655,-1.36839 3.26597,-2.69584 4.94727,-3.97657 1.6813,-1.28073 3.39409,-2.51557 5.14062,-3.69922 1.74654,-1.18365 3.5276,-2.31541 5.33985,-3.39257 1.81225,-1.07716 3.65669,-2.09929 5.53515,-3.06055 0.004,0.005 0.008,0.009 0.0117,0.0137 1.31816,2.27958 2.78908,4.77041 4.56055,7.5918 1.97422,3.14431 4.22587,6.57503 6.74023,10.18164 1.25718,1.80332 2.57934,3.64996 3.9668,5.52734 1.38747,1.87738 2.84025,3.78551 4.35547,5.70899 1.51524,1.92348 3.09462,3.86275 4.73437,5.80468 1.63974,1.94194 3.34032,3.88767 5.10157,5.82032 1.76124,1.93265 3.58315,3.85243 5.46289,5.74804 1.87974,1.89561 3.81727,3.76683 5.8125,5.59766 1.99522,1.8308 4.04659,3.62109 6.15429,5.35937 2.10771,1.73829 4.2711,3.42496 6.48828,5.04297 2.21718,1.61801 4.48886,3.16871 6.8125,4.63867 2.32365,1.46997 4.69986,2.85819 7.12696,4.15235 2.42711,1.29419 4.90603,2.49332 7.43359,3.58398 2.52753,1.09065 5.10352,2.07227 7.72852,2.93164 l 10.88086,3.57032 0.90039,-11.41993 c 0.275,-3.52124 0.44635,-7.0193 0.53125,-10.47656 0.085,-3.45727 0.0824,-6.87258 0.006,-10.23047 -0.0767,-3.35788 -0.22769,-6.6578 -0.4375,-9.88086 -0.2098,-3.22305 -0.47859,-6.37102 -0.79297,-9.42382 -0.31437,-3.05281 -0.67403,-6.0103 -1.06446,-8.85743 -0.39043,-2.84712 -0.81203,-5.58346 -1.25,-8.18945 -0.62694,-3.73047 -1.28808,-6.83039 -1.9414,-9.97851 0.002,-0.0103 -9e-5,-0.019 0.002,-0.0293 2.02838,0.99843 4.07717,2.06191 6.14453,3.1914 2.06735,1.1295 4.15324,2.32557 6.25977,3.58985 2.10653,1.26429 4.23301,2.59723 6.3789,4 2.1459,1.40278 4.31064,2.87494 6.4961,4.41992 2.18546,1.54497 4.39197,3.16264 6.61719,4.85352 2.22521,1.69088 4.4692,3.45443 6.73437,5.29492 2.26516,1.8405 4.55016,3.75813 6.85547,5.75195 2.30532,1.99381 4.6309,4.06401 6.97656,6.21484 2.34565,2.15085 4.71147,4.38179 7.09766,6.69336 2.3862,2.31158 4.79377,4.70367 7.2207,7.17969 2.42692,2.47602 4.87395,5.03552 7.3418,7.67969 2.46785,2.64416 4.95586,5.37342 7.46484,8.18945 2.50897,2.81602 5.03956,5.71935 7.58985,8.71094 1.43156,1.67927 2.88536,3.45164 4.33007,5.1875 2.41732,-1.64284 4.80698,-3.32602 7.16797,-5.04883 3.44313,-2.55404 6.82305,-5.1922 10.13672,-7.91211 3.31432,-2.71938 6.56139,-5.51971 9.73828,-8.39844 3.17624,-2.87909 6.28135,-5.83571 9.3125,-8.86718 3.03147,-3.03115 5.98809,-6.13626 8.86719,-9.3125 2.87873,-3.17689 5.67906,-6.42396 8.39844,-9.73828 2.71991,-3.31367 5.35807,-6.69359 7.91211,-10.13672 1.35635,-1.87292 2.74042,-3.70386 4.04671,-5.61203 -4.5095,-10.75787 -10.81156,-22.43476 -18.93148,-34.24344 -10.97533,-15.75499 -14.83604,-35.39384 -10.64062,-54.13086 3.61999,-16.42994 10.1011,-35.43916 16.37109,-53.78906 7.71995,-22.65986 15.69965,-46.08057 19.09961,-66.48047 3.58,-21.45986 6.84093,-47.46956 4.46094,-72.93946 -0.85498,-9.77752 -2.71243,-19.44145 -5.54102,-28.83984 -18.59994,-60.289705 -56.00077,-84.051385 -84.14062,-93.361335 -16.6709,-5.46654 -34.25752,-7.58731 -51.75,-6.24023 -8.72441,-10.69417 -19.00019,-20.02108 -30.48828,-27.66992 C 298.32561,11.356445 272.81482,-0.33259469 239.34645,0.00725531 h -0.002 c -7.72347,0.0784 -15.87036,0.7975 -24.42969,2.31249999 -24.10989,4.25999 -51.5819,17.4304097 -77.3418,37.0703097 -28.23047,21.5066 -51.761593,48.56154 -69.148433,79.500005 -5.77333,10.30415 -10.76378,21.02786 -14.92969,32.08008 -15.76994,42.11979 -22.880868,98.88003 3.70899,165.67968 8.91251,22.11646 16.97759,45.02822 18.56054,68.82032 3.1507,37.6334 -2.36115,56.52554 -19.44292,86.49969 z M 311.483,105.6459 c 70.9561,16.92641 121.12052,81.23099 121.13281,155.27734 6e-4,88.10549 -70.30452,159.52992 -157.02929,159.5293 -86.72405,-4.7e-4 -157.02795,-71.42457 -157.02735,-159.5293 1.5603,-5.11866 3.12891,-8.23437 3.12891,-8.23437 C 211.71189,243.45836 303.01991,136.65486 311.483,105.6459 Z"
     sodipodi:nodetypes="ccsccssssssssssssssssccssssssssssssscccscssssccsssssssssssssccccccccccccccccccsscccccccccsccc" />
  <path
     id="path65"
     style="display:inline"
     class="cls-3"
     d="m 245.25542,435.05075 c 10.15999,16.87998 31.56972,47.72877 59.67969,62.21875 v -0.0391 c 0.19,-25.96998 -4.86969,-49.51954 -7.67969,-60.51953 -17.31174,2.20614 -34.86421,1.64566 -52,-1.66016 z"
     inkscape:label="cuello" />
  <g
     id="g1267"
     style="display:inline"
     transform="translate(-158.64692,-381.72464)">
    <path
       class="cls-4"
       d="m 454.15163,722.69461 c -13.14,0 -25.13,-4.26 -36.68,-12.86 a 3.5,3.5 0 0 1 4.18,-5.61 c 16.95,12.62 34.31,14.75 56.3,6.89 a 3.5029452,3.5029452 0 0 1 2.35,6.6 77.77,77.77 0 0 1 -26.15,4.98 z"
       id="path79" />
    <ellipse
       class="cls-5"
       cx="-638.15845"
       cy="498.79245"
       rx="6.9499998"
       ry="14.29"
       transform="rotate(-85.64)"
       id="ellipse89" />
    <path
       class="cls-4"
       d="m 462.65163,673.69461 c -8.84,-1.64 -17.71,-2.48 -26.61,-3.3 6.93,-6.22 21.5,-4.58 26.61,3.3 z"
       id="path91" />
    <path
       class="cls-4"
       d="m 513.35163,605.69461 c -6.62,2.34 -12.9,1.66 -14,-1.52 -1.1,-3.18 3.25,-7.91 10,-10 4,-1.23 6.73,-2.15 8.63,-2.63 a 12,12 0 0 1 1.83,-0.34 c 1.19,-0.1 1.8,0.21 2.09,1 1.06,3.26 -1.92,11.19 -8.55,13.49 z"
       id="path67" />
    <path
       class="cls-4"
       d="m 387.83163,604.48461 c 6.62,2.34 12.9,1.66 14,-1.52 1.1,-3.18 -3.25,-7.91 -10,-10 -4,-1.23 -6.73,-2.15 -8.63,-2.63 a 12,12 0 0 0 -1.83,-0.34 c -1.19,-0.1 -1.8,0.21 -2.09,1 -1.06,3.23 1.92,11.16 8.55,13.49 z"
       id="path69" />
    <ellipse
       class="cls-1"
       cx="550.71161"
       cy="684.7746"
       rx="25.4"
       ry="19.040001"
       id="ellipse71"
       style="fill:#e9afaf" />
    <ellipse
       class="cls-1"
       cx="348.33163"
       cy="684.7746"
       rx="21.41"
       ry="16.049999"
       id="ellipse73"
       style="fill:#e9afaf" />
    <path
       class="cls-4"
       d="m 512.84163,629.69461 c 0,18.95 -7.38,34.32 -16.47,34.32 -9.09,0 -17.21,-15.38 -16.47,-34.32 1,-25.66 10.47,-34.33 16.47,-34.33 9.09,-0.05 16.47,15.33 16.47,34.33 z"
       id="path75" />
    <path
       class="cls-4"
       d="m 386.58163,629.69461 c 0,18.95 7.37,34.32 16.47,34.32 9.1,0 17.2,-15.38 16.47,-34.32 -1,-25.66 -10.47,-34.33 -16.47,-34.33 -9.1,-0.05 -16.47,15.33 -16.47,34.33 z"
       id="path77" />
  </g>
  <g
     id="g1271"
     style="display:inline"
     transform="translate(-156.46271,-383.51444)">
    <circle
       style="display:inline;fill:#ecceb3;fill-opacity:1;stroke:none;stroke-width:0.777319;stroke-linecap:round;stroke-linejoin:round;stroke-dasharray:none;stroke-opacity:1"
       id="circle2884"
       cx="265.29068"
       cy="649.30481"
       r="33.61134"
       inkscape:label="oreja"
       transform="translate(1.8157912,1.7897949)" />
    <circle
       class="cls-5"
       cx="266.30161"
       cy="651.0946"
       r="20.58"
       id="circle93" />
    <path
       class="cls-4"
       d="m 282.23163,662.37461 c -4.11,3.08 -8.18,4.84 -12.83,1.71 -3,-2 -4.56,-4.48 -4.46,-8 -0.009,-3.32209 1.99007,-6.32039 5.06,-7.59 3.05779,-1.32438 8.49514,-1.31623 8.68,-3.37 0.11,-2.73 -3,-4.21 -5.31,-5.57 -5.24,-3.09 -11,-3.3 -17,-3 7.83,-7.22 24,-3.74 28.85,6.07 0.72332,1.43761 1.33512,2.92866 1.83,4.46 2.68,8.39 2.17,9 -6.31,7.14 -1.05,-0.23 -3.14,-0.49 -3.14,-0.49 -2.57,-0.64001 -6.66,-0.16 -6.8,3.68 -0.16,4 3.45,5 6.82,5.24 1.54152,0.0226 3.08255,-0.071 4.61,-0.28 z"
       id="path95"
       style="display:inline"
       sodipodi:nodetypes="cccccccccccccc" />
  </g>
  <g
     id="g1263"
     style="display:inline"
     transform="translate(-156.64692,-371.72465)">
    <path
       class="cls-8"
       d="m 338.91163,564.24461 c 0.44,-0.54 0.84,-1.08 1.21,-1.63 4.73,-7 3.87,-14.69 -2.47,-20.83 l -0.85,-0.82 -20,23.34 1.08,0.68 c 9.18,5.86 15.89,5.62 21.03,-0.74 z"
       id="path97" />
    <path
       class="cls-8"
       d="m 296.57163,553.18461 -1.27,-2.31 -0.77,2.53 c -1,3.24 -2,6.42 -2.92,9.57 -3,9.93 -5.91,19.31 -8.57,28.83 -0.61,2.15 0.61,5.68 2.36,6.87 1.75,1.19 5.77,2 7.71,0.6 7.21,-5.09 14.2,-10.42 21.61,-16.07 q 3.65,-2.78 7.43,-5.64 l 1.61,-1.21 -1.89,-0.71 c -11.17,-4.2 -19.21,-11.33 -25.3,-22.46 z"
       id="path99" />
    <path
       class="cls-9"
       d="m 354.51163,512.75461 c -2.21,-1.26 -4.44,-2.48 -6.71,-3.64 a 31.49,31.49 0 0 0 -24.21,-1.85 34.27,34.27 0 0 0 -19.82,16.94 c -5.78,11.38 -2.59,27.6 6.69,34 l 0.82,0.57 0.65,-0.75 q 2.8,-3.24 5.63,-6.46 c 4.46,-5.1 9.09,-10.38 13.41,-15.77 2.72,-3.4 5.39,-3.91 9.2,-1.74 a 19.69,19.69 0 0 1 10.09,14.64 c 1.62,10 -1.6,18.17 -9.56,24.31 -3.29,2.53 -23.94,18.27 -26.65,20.34 l -3,2.25 3.71,-0.26 0.71,-0.06 c 42,-10.78 52.45,-31.2 54.76,-43.4 3.15,-16.47 -5.46,-31.83 -15.72,-39.12 z"
       id="path101" />
  </g>
  <g
     id="g1258"
     style="display:inline"
     transform="translate(-158.64692,-381.72464)">
    <path
       class="cls-14"
       d="m 256.64163,513.13461 c 92.13,-64.44 196.67,-88.39 168.22,-109.08 -23.82,-16.25 -152.58,23.16 -168.22,109.08 z"
       id="path266" />
    <path
       class="cls-14"
       d="m 620.82163,553.19461 c -16.31,-87.77 -98.29,-79.18 -78.73,-97.77 16.19,-14.6 83.49,20.68 78.73,97.77 z"
       id="path268" />
  </g>
</svg>
